<svg width="432" height="349" viewBox="0 0 432 349" fill="none" xmlns="http://www.w3.org/2000/svg">
<g style="mix-blend-mode:multiply">
<path d="M125.141 123.929L87.8442 145.461L113.233 160.128L111.953 160.679L111.236 167.557L125.141 167.007L162.424 145.461L125.141 123.929Z" fill="#F0E6FE"/>
</g>
<path d="M111.223 167.557L77.9344 148.318V109.852L111.223 129.091V167.557Z" fill="#96A9CF"/>
<path d="M99.2905 160.653L89.8672 155.209V116.756L99.2905 122.187V160.653Z" fill="#788BB1"/>
<path d="M195.547 118.844L111.223 167.557V129.091L195.547 80.3779V118.844Z" fill="#8C9FC5"/>
<path d="M158.097 140.479L148.686 145.923V107.457L158.097 102.013V140.479Z" fill="#6E81A7"/>
<path d="M195.534 80.3779L111.223 129.079L77.9216 109.852L162.245 61.1384L195.534 80.3779Z" fill="#A0B3D9"/>
<path d="M158.084 102.013L148.673 107.444L115.372 88.2171L124.795 82.7732L158.084 102.013Z" fill="#8295BB"/>
<path d="M99.3673 122.136L89.944 116.692L174.101 68.0939L183.511 73.525L99.3673 122.136Z" fill="#8295BB"/>
<path d="M245.826 313.916L159.876 264.28C158.599 263.616 157.163 263.319 155.728 263.422H147.354L148.392 266.265L101.224 293.459C98.6631 294.945 98.3686 297.2 100.596 298.48L185.304 347.412L182.461 349H190.425C192.106 349.005 193.762 348.586 195.239 347.783L245.173 318.95C247.72 317.451 248.002 315.209 245.826 313.916Z" fill="#F0E6FE"/>
<path d="M238.95 313.826H237.209L151.503 264.331C150.127 263.705 148.623 263.411 147.113 263.474C145.603 263.536 144.129 263.952 142.809 264.69L92.876 293.511C92.6263 293.656 92.3867 293.819 92.159 293.997H90.7762V296.469C90.8424 296.898 91.0139 297.304 91.2753 297.651C91.5367 297.997 91.8799 298.274 92.2742 298.455L178.224 348.103C179.6 348.727 181.103 349.019 182.613 348.956C184.122 348.894 185.596 348.479 186.917 347.745L236.863 318.95C237.405 318.707 237.881 318.337 238.249 317.871C238.616 317.405 238.866 316.856 238.976 316.273L238.95 313.826Z" fill="#8295BB"/>
<path d="M178.224 345.849L92.2742 296.149C90.0464 294.868 90.3281 292.614 92.9016 291.128L142.835 262.307C144.154 261.57 145.629 261.153 147.139 261.091C148.649 261.029 150.153 261.322 151.528 261.949L237.478 311.584C239.706 312.865 239.424 315.12 236.85 316.606L186.917 345.439C185.601 346.182 184.129 346.606 182.619 346.677C181.109 346.748 179.604 346.464 178.224 345.849Z" fill="#A0B3D9"/>
<path d="M165.062 283.494C164.715 283.492 164.375 283.4 164.076 283.225L145.229 272.35C144.772 272.085 144.44 271.649 144.304 271.139C144.168 270.628 144.241 270.085 144.506 269.628C144.771 269.171 145.206 268.838 145.716 268.702C146.227 268.566 146.77 268.639 147.226 268.904L166.06 279.779C166.444 279.996 166.745 280.334 166.915 280.74C167.086 281.147 167.116 281.598 167.002 282.024C166.887 282.45 166.635 282.825 166.283 283.091C165.932 283.357 165.502 283.499 165.062 283.494Z" fill="white"/>
<path d="M128.034 298.173C127.715 298.174 127.401 298.09 127.125 297.93L113.771 290.244C113.564 290.125 113.383 289.966 113.238 289.776C113.092 289.587 112.986 289.37 112.924 289.14C112.862 288.909 112.846 288.668 112.877 288.431C112.909 288.194 112.986 287.966 113.105 287.759C113.225 287.552 113.384 287.371 113.573 287.225C113.763 287.08 113.979 286.973 114.209 286.911C114.44 286.85 114.681 286.834 114.917 286.865C115.154 286.896 115.382 286.974 115.589 287.093L128.943 294.779C129.15 294.898 129.331 295.057 129.477 295.246C129.622 295.436 129.729 295.652 129.791 295.883C129.852 296.114 129.868 296.355 129.837 296.591C129.806 296.828 129.728 297.057 129.609 297.264C129.447 297.538 129.217 297.767 128.941 297.926C128.665 298.085 128.353 298.17 128.034 298.173Z" fill="white"/>
<path d="M149.083 310.316C148.764 310.316 148.451 310.232 148.174 310.073L134.833 302.387C134.444 302.134 134.166 301.741 134.057 301.289C133.948 300.838 134.017 300.362 134.247 299.958C134.478 299.555 134.855 299.256 135.299 299.122C135.744 298.987 136.223 299.028 136.638 299.236L149.992 306.922C150.342 307.118 150.617 307.426 150.773 307.796C150.929 308.167 150.957 308.578 150.853 308.967C150.749 309.355 150.518 309.697 150.197 309.939C149.877 310.181 149.485 310.309 149.083 310.303V310.316Z" fill="white"/>
<path d="M170.106 322.459C169.791 322.46 169.481 322.376 169.21 322.216L155.856 314.53C155.65 314.412 155.469 314.254 155.324 314.065C155.18 313.877 155.073 313.662 155.011 313.432C154.949 313.203 154.933 312.963 154.964 312.727C154.995 312.492 155.072 312.264 155.19 312.058C155.309 311.852 155.467 311.672 155.655 311.527C155.843 311.382 156.058 311.275 156.288 311.213C156.517 311.151 156.757 311.135 156.992 311.166C157.228 311.197 157.455 311.274 157.661 311.392L171.015 319.078C171.366 319.274 171.641 319.582 171.797 319.952C171.953 320.323 171.981 320.734 171.876 321.122C171.772 321.511 171.541 321.853 171.221 322.095C170.9 322.337 170.508 322.465 170.106 322.459Z" fill="white"/>
<path d="M191.142 334.602C190.823 334.604 190.509 334.52 190.233 334.359L176.879 326.674C176.654 326.565 176.453 326.411 176.29 326.221C176.126 326.031 176.004 325.809 175.931 325.569C175.857 325.33 175.834 325.078 175.862 324.829C175.89 324.58 175.97 324.34 176.096 324.123C176.221 323.906 176.39 323.718 176.592 323.569C176.794 323.421 177.024 323.316 177.268 323.261C177.512 323.206 177.765 323.201 178.011 323.249C178.257 323.296 178.491 323.393 178.697 323.535L192.051 331.221C192.257 331.34 192.436 331.499 192.58 331.687C192.724 331.876 192.83 332.092 192.89 332.321C192.951 332.551 192.966 332.79 192.934 333.026C192.902 333.261 192.824 333.488 192.704 333.693C192.549 333.97 192.322 334.201 192.047 334.361C191.772 334.521 191.46 334.604 191.142 334.602Z" fill="white"/>
<path d="M138.955 314.479C138.645 314.478 138.339 314.394 138.072 314.236L105.282 295.291C105.082 295.176 104.907 295.022 104.766 294.839C104.625 294.656 104.522 294.447 104.462 294.224C104.402 294.001 104.386 293.768 104.416 293.539C104.446 293.31 104.521 293.089 104.636 292.889C104.751 292.689 104.905 292.514 105.088 292.373C105.27 292.232 105.479 292.129 105.702 292.068C105.925 292.008 106.158 291.993 106.387 292.023C106.616 292.053 106.836 292.127 107.037 292.242L139.839 311.187C140.173 311.383 140.433 311.683 140.579 312.042C140.726 312.4 140.751 312.796 140.651 313.17C140.55 313.544 140.33 313.874 140.024 314.111C139.718 314.347 139.342 314.477 138.955 314.479Z" fill="white"/>
<path d="M159.313 326.225C159.004 326.225 158.7 326.145 158.429 325.995L145.472 318.514C145.073 318.277 144.782 317.891 144.665 317.441C144.547 316.991 144.612 316.513 144.844 316.11C145.077 315.707 145.458 315.412 145.907 315.289C146.355 315.166 146.834 315.225 147.239 315.453L160.196 322.933C160.598 323.174 160.889 323.561 161.009 324.013C161.128 324.466 161.067 324.947 160.836 325.354C160.68 325.62 160.458 325.84 160.19 325.992C159.923 326.145 159.621 326.225 159.313 326.225Z" fill="white"/>
<path d="M182.346 339.534C182.04 339.539 181.739 339.46 181.476 339.303L174.126 335.025C173.926 334.91 173.751 334.756 173.61 334.573C173.469 334.39 173.366 334.181 173.306 333.958C173.246 333.735 173.23 333.503 173.26 333.274C173.29 333.045 173.365 332.824 173.48 332.623C173.595 332.423 173.748 332.248 173.931 332.107C174.114 331.966 174.323 331.863 174.546 331.803C174.769 331.743 175.002 331.727 175.231 331.757C175.46 331.787 175.68 331.861 175.88 331.977L183.281 336.255C183.618 336.447 183.882 336.746 184.031 337.105C184.18 337.463 184.206 337.861 184.105 338.236C184.004 338.611 183.782 338.942 183.473 339.177C183.164 339.411 182.786 339.537 182.397 339.534H182.346Z" fill="white"/>
<path d="M142.336 294.612L123.13 283.519C122.209 282.994 122.324 282.059 123.399 281.444L132.528 276.167C133.075 275.862 133.685 275.691 134.31 275.666C134.935 275.642 135.557 275.765 136.126 276.026L155.331 287.106C156.253 287.644 156.138 288.566 155.075 289.181L145.959 294.497C145.406 294.799 144.79 294.966 144.161 294.986C143.532 295.006 142.906 294.878 142.336 294.612Z" fill="#8295BB"/>
<path d="M221.704 316.99C225.238 314.953 225.238 311.648 221.704 309.599C219.722 308.587 217.528 308.059 215.302 308.059C213.077 308.059 210.883 308.587 208.9 309.599C205.367 311.648 205.367 314.953 208.9 316.99C210.883 318.002 213.077 318.53 215.302 318.53C217.528 318.53 219.722 318.002 221.704 316.99Z" fill="#8295BB"/>
<g style="mix-blend-mode:multiply">
<path d="M72.5954 238.149L35.3118 259.681L60.6882 274.348L59.4079 274.899L58.7037 281.764L72.5954 281.226L109.879 259.681L72.5954 238.149Z" fill="#F0E6FE"/>
</g>
<path d="M58.7677 246.987L21.4841 225.455L58.7677 203.91L96.0512 225.455L58.7677 246.987Z" fill="#94F2E9"/>
<path d="M44.876 238.969L35.3758 233.474L72.6594 211.941L82.1595 217.424L44.876 238.969Z" fill="#6BC8C6"/>
<path d="M35.3758 217.424L44.876 211.941L82.1595 233.474L72.6594 238.969L35.3758 217.424Z" fill="#6BC8C6"/>
<path d="M58.7165 281.764L21.4329 260.232V225.455L58.7165 246.987V281.764Z" fill="#80DED5"/>
<path d="M44.8247 273.746L35.3246 268.263V233.474L44.8247 238.969V273.746Z" fill="#61BEBC"/>
<path d="M95.9872 260.232L58.7037 281.764V246.987L95.9872 225.455V260.232Z" fill="#62C0B7"/>
<path d="M82.0955 268.263L72.5954 273.746V238.969L82.0955 233.474V268.263Z" fill="#57B4B2"/>
<g style="mix-blend-mode:multiply">
<path d="M196.263 128.989L158.967 150.521L184.356 165.188L183.063 165.739L182.359 172.604L196.263 172.066L233.547 150.521L196.263 128.989Z" fill="#F0E6FE"/>
</g>
<path d="M182.423 137.827L145.139 116.295L182.423 94.7499L219.719 116.295L182.423 137.827Z" fill="#94F2E9"/>
<path d="M168.531 129.796L159.031 124.314L196.328 102.781L205.815 108.264L168.531 129.796Z" fill="#6BC8C6"/>
<path d="M159.031 108.264L168.531 102.781L205.815 124.314L196.328 129.796L159.031 108.264Z" fill="#6BC8C6"/>
<path d="M182.372 172.604L145.088 151.072V116.295L182.372 137.827V172.604Z" fill="#80DED5"/>
<path d="M168.48 164.586L158.98 159.09V124.313L168.48 129.796V164.586Z" fill="#61BEBC"/>
<path d="M219.655 151.072L182.359 172.604V137.827L219.655 116.295V151.072Z" fill="#62C0B7"/>
<path d="M205.751 159.09L196.264 164.586V129.796L205.751 124.313V159.09Z" fill="#57B4B2"/>
<path d="M287.693 49.354V35.8658C287.693 24.2479 295.848 10.1193 305.899 4.31674C315.963 -1.49865 324.106 3.21514 324.106 14.8331V28.2828" stroke="#8295BB" stroke-width="2.91" stroke-miterlimit="10" stroke-linecap="round"/>
<path d="M341.826 108.11L269.973 149.612V48.9825L341.826 7.48059V108.11Z" fill="#8C9FC5"/>
<path d="M357.919 117.345L345.846 116.743V16.114L357.919 16.716V117.345Z" fill="#96A9CF"/>
<path d="M345.846 116.743L341.826 108.059V7.42932L345.846 16.114V116.743Z" fill="#A0B3D9"/>
<path d="M357.919 117.576L286.067 159.078V58.4485L357.919 16.9467V117.576Z" fill="#A0B3D9"/>
<path d="M286.067 159.078L282.046 150.726V50.0969L286.067 58.4485V159.078Z" fill="#96A9CF"/>
<path d="M282.046 150.726L269.973 149.791V49.1619L282.046 50.0969V150.726Z" fill="#A0B3D9"/>
<path d="M304.824 58.2307C304.803 58.5916 304.698 58.9426 304.518 59.2561C304.338 59.5695 304.088 59.8368 303.787 60.0368C303.21 60.3699 302.737 60.1009 302.737 59.4348C302.757 59.0723 302.863 58.7198 303.045 58.4059C303.228 58.0921 303.482 57.8258 303.787 57.6287C304.35 57.3085 304.824 57.5646 304.824 58.2307Z" stroke="#8295BB" stroke-width="2.91" stroke-miterlimit="10" stroke-linecap="round"/>
<path d="M341.237 37.1467C341.219 37.5083 341.115 37.8605 340.935 38.1744C340.755 38.4883 340.503 38.7551 340.2 38.9528C339.623 39.2731 339.162 38.9528 339.162 38.3508C339.18 37.9892 339.284 37.637 339.464 37.3231C339.644 37.0092 339.896 36.7425 340.2 36.5447C340.776 36.2629 341.237 36.5319 341.237 37.1467Z" stroke="#8295BB" stroke-width="2.91" stroke-miterlimit="10" stroke-linecap="round"/>
<path d="M303.787 58.8327V45.383C303.787 33.7651 311.93 19.6365 321.993 13.8211C332.044 8.01855 340.199 12.7195 340.199 24.3375V37.8" stroke="#8295BB" stroke-width="2.91" stroke-miterlimit="10" stroke-linecap="round"/>
<g style="mix-blend-mode:multiply">
<path d="M390.402 128.387L311.136 174.564L325.962 182.724L324.682 183.274L323.965 190.14L337.869 189.589L417.135 143.412L390.402 128.387Z" fill="#F0E6FE"/>
</g>
<path d="M325.796 120.509V105.919C325.796 93.328 334.63 78.0209 345.539 71.7188C356.434 65.4295 365.269 70.5275 365.269 83.119V97.7087" stroke="#6BC8C6" stroke-width="3.15" stroke-miterlimit="10" stroke-linecap="round"/>
<path d="M384.474 134.881L306.591 179.867V120.099L384.474 75.1133V134.881Z" fill="#4EACA3"/>
<path d="M401.912 144.898L388.827 144.245V84.4768L401.912 85.1301V144.898Z" fill="#4EACA3"/>
<path d="M388.827 144.245L384.474 134.83V75.0493L388.827 84.4769V144.245Z" fill="#62C0B7"/>
<path d="M401.912 145.154L324.029 190.14V130.372L401.912 85.3862V145.154Z" fill="#62C0B7"/>
<path d="M324.029 190.14L319.676 181.084V121.316L324.029 130.372V190.14Z" fill="#FDD9AB"/>
<path d="M319.676 181.084L306.591 180.072V120.291L319.676 121.316V181.084Z" fill="#FEEDD5"/>
<path d="M344.412 130.129C344.391 130.519 344.279 130.9 344.083 131.238C343.887 131.576 343.613 131.864 343.285 132.076C342.658 132.435 342.158 132.153 342.158 131.423C342.179 131.032 342.292 130.652 342.488 130.313C342.683 129.975 342.957 129.688 343.285 129.476C343.861 129.117 344.412 129.373 344.412 130.129Z" stroke="#6BC8C6" stroke-width="3.15" stroke-miterlimit="10" stroke-linecap="round"/>
<path d="M383.834 107.328C383.813 107.719 383.7 108.099 383.504 108.438C383.309 108.776 383.035 109.063 382.707 109.275C382.079 109.634 381.58 109.352 381.58 108.622C381.601 108.232 381.713 107.851 381.909 107.513C382.105 107.175 382.378 106.887 382.707 106.675C383.334 106.317 383.834 106.611 383.834 107.328Z" stroke="#6BC8C6" stroke-width="3.15" stroke-miterlimit="10" stroke-linecap="round"/>
<path d="M343.234 130.782V116.192C343.234 103.601 352.068 88.294 362.964 81.9919C373.873 75.7025 382.707 80.8006 382.707 93.3921V107.982" stroke="#6BC8C6" stroke-width="3.15" stroke-miterlimit="10" stroke-linecap="round"/>
<g style="mix-blend-mode:multiply">
<path d="M246.043 287.669L283.442 291.602C284.332 291.689 285.227 291.497 286.003 291.051L387.7 232.334C388.343 231.96 388.877 231.423 389.248 230.778C389.619 230.133 389.814 229.402 389.814 228.657C389.814 227.913 389.619 227.182 389.248 226.537C388.877 225.892 388.343 225.355 387.7 224.981L283.724 163.651L246.043 287.669Z" fill="#F0E6FE"/>
</g>
<path d="M317.025 212.851L299.101 202.501V196.032L317.025 206.395V212.851Z" fill="#304F8C"/>
<path d="M317.025 206.395L321.02 204.089V208.637C321.017 209.219 320.862 209.79 320.57 210.293C320.278 210.797 319.859 211.215 319.356 211.506L317.025 212.787V206.395Z" fill="#A0B3D9"/>
<path d="M317.025 206.395L299.101 196.032L303.082 193.74L321.007 204.089L317.025 206.395Z" fill="#304F8C"/>
<path d="M242.83 170.901L224.905 160.538V154.082L242.83 164.445V170.901Z" fill="#304F8C"/>
<path d="M242.83 164.445L246.824 162.139V166.686C246.822 167.267 246.667 167.836 246.375 168.338C246.083 168.839 245.664 169.255 245.16 169.543L242.83 170.901V164.445Z" fill="#A0B3D9"/>
<path d="M242.83 164.445L224.905 154.082L228.887 151.776L246.824 162.139L242.83 164.445Z" fill="#304F8C"/>
<path d="M340.007 103.755L209.323 28.1803C208.982 27.9471 208.592 27.7967 208.183 27.7411C207.774 27.6855 207.358 27.7262 206.967 27.8601L203.574 29.7174L204.394 31.1136L205.367 30.6397C205.367 30.8446 205.367 31.0239 205.367 31.2417V133.818C205.382 135.323 205.752 136.803 206.446 138.138C207.14 139.473 208.139 140.626 209.361 141.503L338.97 216.361L338.778 216.463L339.162 219.025L342.414 217.257C343.4 216.847 344.04 215.682 344.04 213.927V111.338C344.005 109.847 343.623 108.385 342.922 107.068C342.222 105.751 341.224 104.617 340.007 103.755Z" fill="#8C9FC5"/>
<path d="M336.73 218.718L206.135 143.233C204.91 142.358 203.91 141.205 203.216 139.87C202.521 138.534 202.153 137.053 202.14 135.547V33.0094C202.14 30.0761 203.92 28.7184 206.135 29.9993L336.73 105.484C337.955 106.358 338.956 107.511 339.65 108.846C340.345 110.182 340.713 111.664 340.724 113.17V215.759C340.737 218.641 338.958 219.986 336.73 218.718Z" fill="#A0B3D9"/>
<path d="M208.235 132.037V43.6538C208.235 40.7077 210.027 39.3627 212.229 40.6308L330.584 109.032C331.805 109.911 332.803 111.064 333.496 112.399C334.19 113.734 334.561 115.213 334.579 116.718V205.101C334.579 208.047 332.786 209.405 330.584 208.124L212.229 139.62C211.02 138.754 210.029 137.618 209.336 136.301C208.642 134.985 208.265 133.525 208.235 132.037Z" fill="#304F8C"/>
<path d="M340.737 224.853H332.236V226.134L208.568 154.761C207.206 154.142 205.718 153.851 204.223 153.914C202.728 153.976 201.269 154.389 199.964 155.12L119.072 201.861H109.085V209.264C109.125 209.709 109.281 210.136 109.537 210.503C109.793 210.869 110.14 211.162 110.545 211.352L241.229 286.927C242.592 287.543 244.08 287.832 245.574 287.769C247.068 287.707 248.526 287.296 249.833 286.568L338.637 235.331C339.161 235.096 339.622 234.742 339.984 234.297C340.346 233.852 340.6 233.329 340.724 232.769L340.737 224.853Z" fill="#8C9FC5"/>
<path d="M241.229 279.549L110.545 204.064C108.343 202.783 108.624 200.567 111.172 199.094L199.964 147.857C201.269 147.126 202.728 146.713 204.223 146.651C205.718 146.589 207.206 146.879 208.568 147.498L339.29 222.88C341.493 224.161 341.224 226.377 338.676 227.85L249.871 279.087C248.568 279.838 247.107 280.27 245.605 280.35C244.104 280.43 242.605 280.156 241.229 279.549Z" fill="#A0B3D9"/>
<path d="M153.462 181.788L200.834 154.39C201.88 153.807 203.048 153.477 204.244 153.426C205.44 153.375 206.631 153.604 207.723 154.095L327.767 223.393C329.534 224.405 329.304 226.185 327.268 227.364L279.895 254.763C278.849 255.343 277.681 255.671 276.485 255.72C275.289 255.769 274.098 255.538 273.007 255.044L152.962 185.734C151.196 184.735 151.426 182.954 153.462 181.788Z" fill="#304F8C"/>
<path d="M164.985 223.905L183.332 213.312C184.405 212.714 185.603 212.376 186.831 212.324C188.058 212.273 189.28 212.511 190.4 213.017L225.724 233.422C227.542 234.473 227.312 236.292 225.212 237.509L206.878 248.102C205.802 248.7 204.602 249.038 203.372 249.089C202.143 249.141 200.919 248.903 199.797 248.396L164.473 228.004C162.667 226.941 162.898 225.122 164.985 223.905Z" fill="#304F8C"/>
<path d="M207.044 165.098L198.863 160.371C198.665 160.309 198.493 160.186 198.37 160.019C198.248 159.852 198.181 159.65 198.181 159.443C198.181 159.236 198.248 159.034 198.37 158.867C198.493 158.7 198.665 158.576 198.863 158.514L203.024 156.106C203.522 155.854 204.072 155.723 204.631 155.723C205.189 155.723 205.739 155.854 206.237 156.106L214.432 160.833C214.623 160.901 214.788 161.027 214.905 161.193C215.023 161.36 215.085 161.558 215.085 161.761C215.085 161.965 215.023 162.163 214.905 162.329C214.788 162.495 214.623 162.621 214.432 162.69L210.258 165.098C209.76 165.35 209.209 165.482 208.651 165.482C208.093 165.482 207.542 165.35 207.044 165.098Z" fill="#A0B3D9"/>
<path d="M220.769 173.027L212.537 168.3C212.339 168.238 212.167 168.115 212.044 167.948C211.922 167.781 211.856 167.579 211.856 167.372C211.856 167.164 211.922 166.963 212.044 166.796C212.167 166.629 212.339 166.505 212.537 166.443L216.698 164.035C217.196 163.783 217.746 163.651 218.305 163.651C218.863 163.651 219.413 163.783 219.911 164.035L228.106 168.761C228.297 168.83 228.463 168.956 228.58 169.122C228.697 169.288 228.759 169.487 228.759 169.69C228.759 169.893 228.697 170.092 228.58 170.258C228.463 170.424 228.297 170.55 228.106 170.619L223.932 173.027C223.44 173.271 222.899 173.398 222.35 173.398C221.802 173.398 221.261 173.271 220.769 173.027Z" fill="#A0B3D9"/>
<path d="M234.495 180.956L226.313 176.229C226.116 176.167 225.943 176.044 225.821 175.877C225.698 175.709 225.632 175.508 225.632 175.301C225.632 175.093 225.698 174.892 225.821 174.725C225.943 174.558 226.116 174.434 226.313 174.372L230.487 171.964C230.983 171.711 231.531 171.579 232.087 171.579C232.644 171.579 233.192 171.711 233.688 171.964L241.882 176.69C242.073 176.759 242.239 176.885 242.356 177.051C242.473 177.217 242.536 177.416 242.536 177.619C242.536 177.822 242.473 178.021 242.356 178.187C242.239 178.353 242.073 178.479 241.882 178.548L237.708 180.956C237.21 181.208 236.66 181.339 236.101 181.339C235.543 181.339 234.993 181.208 234.495 180.956Z" fill="#A0B3D9"/>
<path d="M248.22 188.885L240.038 184.158C239.847 184.09 239.682 183.964 239.564 183.797C239.447 183.631 239.385 183.433 239.385 183.23C239.385 183.026 239.447 182.828 239.564 182.662C239.682 182.495 239.847 182.369 240.038 182.301L244.212 179.893C244.708 179.64 245.256 179.508 245.813 179.508C246.369 179.508 246.918 179.64 247.413 179.893L255.607 184.619C255.799 184.688 255.964 184.814 256.081 184.98C256.198 185.146 256.261 185.345 256.261 185.548C256.261 185.751 256.198 185.95 256.081 186.116C255.964 186.282 255.799 186.408 255.607 186.477L251.433 188.885C250.935 189.137 250.385 189.268 249.827 189.268C249.268 189.268 248.718 189.137 248.22 188.885Z" fill="#A0B3D9"/>
<path d="M261.945 196.814L253.764 192.138C253.572 192.07 253.407 191.944 253.29 191.778C253.173 191.611 253.11 191.413 253.11 191.21C253.11 191.006 253.173 190.808 253.29 190.642C253.407 190.475 253.572 190.349 253.764 190.281L257.938 187.873C258.433 187.62 258.982 187.488 259.538 187.488C260.094 187.488 260.643 187.62 261.138 187.873L269.333 192.599C269.524 192.668 269.69 192.794 269.807 192.96C269.924 193.126 269.986 193.325 269.986 193.528C269.986 193.731 269.924 193.93 269.807 194.096C269.69 194.262 269.524 194.388 269.333 194.457L265.159 196.865C264.657 197.109 264.104 197.232 263.546 197.223C262.987 197.214 262.439 197.074 261.945 196.814Z" fill="#A0B3D9"/>
<path d="M275.67 204.743L267.489 200.016C267.298 199.948 267.132 199.822 267.015 199.655C266.898 199.489 266.835 199.291 266.835 199.087C266.835 198.884 266.898 198.686 267.015 198.519C267.132 198.353 267.298 198.227 267.489 198.159L271.663 195.751C272.158 195.498 272.707 195.366 273.263 195.366C273.82 195.366 274.368 195.498 274.864 195.751L283.058 200.477C283.249 200.546 283.415 200.672 283.532 200.838C283.649 201.004 283.712 201.202 283.712 201.406C283.712 201.609 283.649 201.808 283.532 201.974C283.415 202.14 283.249 202.266 283.058 202.334L278.884 204.743C278.386 204.995 277.835 205.126 277.277 205.126C276.719 205.126 276.168 204.995 275.67 204.743Z" fill="#A0B3D9"/>
<path d="M289.357 212.633L281.163 207.907C280.972 207.838 280.806 207.712 280.689 207.546C280.572 207.38 280.509 207.181 280.509 206.978C280.509 206.775 280.572 206.576 280.689 206.41C280.806 206.244 280.972 206.118 281.163 206.049L285.388 203.667C285.884 203.414 286.432 203.282 286.989 203.282C287.545 203.282 288.093 203.414 288.589 203.667L296.783 208.393C296.975 208.462 297.14 208.588 297.257 208.754C297.374 208.92 297.437 209.119 297.437 209.322C297.437 209.525 297.374 209.724 297.257 209.89C297.14 210.056 296.975 210.182 296.783 210.251L292.609 212.633C292.107 212.895 291.549 213.031 290.983 213.031C290.417 213.031 289.859 212.895 289.357 212.633Z" fill="#A0B3D9"/>
<path d="M303.134 220.6L294.939 215.861C294.747 215.796 294.579 215.672 294.46 215.506C294.342 215.341 294.278 215.142 294.278 214.939C294.278 214.735 294.342 214.537 294.46 214.371C294.579 214.206 294.747 214.082 294.939 214.016L299.113 211.608C299.609 211.355 300.157 211.223 300.714 211.223C301.27 211.223 301.819 211.355 302.314 211.608L310.508 216.335C310.7 216.403 310.865 216.529 310.982 216.696C311.099 216.862 311.162 217.06 311.162 217.264C311.162 217.467 311.099 217.665 310.982 217.832C310.865 217.998 310.7 218.124 310.508 218.192L306.334 220.6C305.839 220.853 305.29 220.985 304.734 220.985C304.178 220.985 303.629 220.853 303.134 220.6Z" fill="#A0B3D9"/>
<path d="M316.859 228.529L308.665 223.79C308.472 223.725 308.304 223.601 308.186 223.435C308.067 223.27 308.003 223.071 308.003 222.868C308.003 222.664 308.067 222.466 308.186 222.3C308.304 222.135 308.472 222.011 308.665 221.945L312.839 219.537C313.334 219.284 313.883 219.152 314.439 219.152C314.995 219.152 315.544 219.284 316.039 219.537L324.234 224.264C324.425 224.332 324.591 224.458 324.708 224.625C324.825 224.791 324.887 224.989 324.887 225.193C324.887 225.396 324.825 225.594 324.708 225.76C324.591 225.927 324.425 226.053 324.234 226.121L320.085 228.529C319.586 228.787 319.033 228.921 318.472 228.921C317.911 228.921 317.358 228.787 316.859 228.529Z" fill="#A0B3D9"/>
<path d="M203.869 174.5L189.132 165.982C188.939 165.917 188.772 165.793 188.653 165.627C188.534 165.462 188.47 165.263 188.47 165.06C188.47 164.856 188.534 164.657 188.653 164.492C188.772 164.327 188.939 164.203 189.132 164.137L193.306 161.716C193.806 161.47 194.356 161.342 194.913 161.342C195.47 161.342 196.02 161.47 196.52 161.716L211.256 170.235C211.448 170.303 211.613 170.429 211.73 170.595C211.847 170.761 211.91 170.96 211.91 171.163C211.91 171.367 211.847 171.565 211.73 171.731C211.613 171.897 211.448 172.023 211.256 172.092L207.082 174.5C206.584 174.752 206.034 174.884 205.476 174.884C204.917 174.884 204.367 174.752 203.869 174.5Z" fill="#A0B3D9"/>
<path d="M217.658 182.429L209.477 177.69C208.58 177.177 208.58 176.409 209.477 175.845L213.638 173.437C214.136 173.185 214.686 173.053 215.245 173.053C215.803 173.053 216.353 173.185 216.851 173.437L225.046 178.163C225.237 178.232 225.403 178.358 225.52 178.524C225.637 178.69 225.699 178.889 225.699 179.092C225.699 179.295 225.637 179.494 225.52 179.66C225.403 179.826 225.237 179.952 225.046 180.021L220.872 182.429C220.374 182.681 219.823 182.812 219.265 182.812C218.707 182.812 218.156 182.681 217.658 182.429Z" fill="#A0B3D9"/>
<path d="M231.319 190.358L223.138 185.618C222.242 185.106 222.242 184.338 223.138 183.774L227.299 181.366C227.797 181.114 228.348 180.982 228.906 180.982C229.464 180.982 230.015 181.114 230.513 181.366L238.707 186.092C238.898 186.161 239.064 186.287 239.181 186.453C239.298 186.619 239.361 186.818 239.361 187.021C239.361 187.224 239.298 187.423 239.181 187.589C239.064 187.755 238.898 187.881 238.707 187.95L234.533 190.358C234.035 190.61 233.484 190.741 232.926 190.741C232.368 190.741 231.817 190.61 231.319 190.358Z" fill="#A0B3D9"/>
<path d="M245.045 198.287L236.863 193.547C235.967 193.035 235.967 192.266 236.863 191.703L241.024 189.295C241.522 189.042 242.073 188.911 242.631 188.911C243.189 188.911 243.74 189.042 244.238 189.295L252.432 194.021C252.625 194.086 252.792 194.21 252.911 194.376C253.03 194.541 253.094 194.74 253.094 194.943C253.094 195.147 253.03 195.346 252.911 195.511C252.792 195.677 252.625 195.801 252.432 195.866L248.258 198.287C247.76 198.539 247.21 198.67 246.651 198.67C246.093 198.67 245.543 198.539 245.045 198.287Z" fill="#A0B3D9"/>
<path d="M258.77 206.228L250.588 201.489C249.692 200.977 249.692 200.208 250.588 199.645L254.788 197.262C255.286 197.01 255.837 196.879 256.395 196.879C256.953 196.879 257.503 197.01 258.002 197.262L266.196 202.001C266.389 202.067 266.556 202.191 266.675 202.356C266.793 202.522 266.857 202.72 266.857 202.924C266.857 203.127 266.793 203.326 266.675 203.491C266.556 203.657 266.389 203.781 266.196 203.846L261.983 206.228C261.484 206.475 260.934 206.603 260.377 206.603C259.819 206.603 259.27 206.475 258.77 206.228Z" fill="#A0B3D9"/>
<path d="M272.495 214.132L264.314 209.405C264.121 209.34 263.953 209.216 263.835 209.05C263.716 208.885 263.652 208.687 263.652 208.483C263.652 208.279 263.716 208.081 263.835 207.915C263.953 207.75 264.121 207.626 264.314 207.561L268.488 205.14C268.983 204.887 269.532 204.755 270.088 204.755C270.644 204.755 271.193 204.887 271.688 205.14L279.883 209.879C280.075 209.944 280.243 210.068 280.362 210.234C280.48 210.399 280.544 210.598 280.544 210.801C280.544 211.005 280.48 211.204 280.362 211.369C280.243 211.534 280.075 211.658 279.883 211.724L275.709 214.132C275.211 214.384 274.66 214.515 274.102 214.515C273.544 214.515 272.993 214.384 272.495 214.132Z" fill="#A0B3D9"/>
<path d="M286.22 222.061L278.039 217.334C277.848 217.266 277.682 217.14 277.565 216.973C277.448 216.807 277.385 216.609 277.385 216.405C277.385 216.202 277.448 216.004 277.565 215.837C277.682 215.671 277.848 215.545 278.039 215.477L282.213 213.069C282.708 212.816 283.257 212.684 283.813 212.684C284.37 212.684 284.918 212.816 285.414 213.069L293.608 217.808C293.801 217.873 293.968 217.997 294.087 218.163C294.206 218.328 294.269 218.527 294.269 218.73C294.269 218.934 294.206 219.132 294.087 219.298C293.968 219.463 293.801 219.587 293.608 219.652L289.434 222.061C288.936 222.313 288.385 222.444 287.827 222.444C287.269 222.444 286.718 222.313 286.22 222.061Z" fill="#A0B3D9"/>
<path d="M307.128 234.14L292.097 225.442C291.906 225.374 291.74 225.248 291.623 225.082C291.506 224.915 291.443 224.717 291.443 224.514C291.443 224.31 291.506 224.112 291.623 223.946C291.74 223.779 291.906 223.653 292.097 223.585L296.271 221.177C296.767 220.924 297.315 220.792 297.871 220.792C298.428 220.792 298.976 220.924 299.472 221.177L314.516 229.861C314.707 229.93 314.873 230.056 314.99 230.222C315.107 230.388 315.17 230.587 315.17 230.79C315.17 230.993 315.107 231.192 314.99 231.358C314.873 231.524 314.707 231.65 314.516 231.719L310.342 234.127C309.845 234.381 309.295 234.515 308.737 234.517C308.178 234.519 307.627 234.39 307.128 234.14Z" fill="#A0B3D9"/>
<path d="M184.369 185.734L169.632 177.216C169.441 177.147 169.276 177.021 169.159 176.855C169.041 176.689 168.979 176.49 168.979 176.287C168.979 176.084 169.041 175.885 169.159 175.719C169.276 175.553 169.441 175.427 169.632 175.358L173.806 172.95C174.304 172.698 174.855 172.567 175.413 172.567C175.971 172.567 176.522 172.698 177.02 172.95L191.757 181.468C191.95 181.533 192.117 181.658 192.236 181.823C192.354 181.988 192.418 182.187 192.418 182.391C192.418 182.594 192.354 182.793 192.236 182.958C192.117 183.124 191.95 183.248 191.757 183.313L187.634 185.734C187.129 185.994 186.57 186.13 186.002 186.13C185.434 186.13 184.874 185.994 184.369 185.734Z" fill="#A0B3D9"/>
<path d="M198.146 193.663L189.964 188.923C189.771 188.858 189.604 188.734 189.485 188.568C189.367 188.403 189.303 188.205 189.303 188.001C189.303 187.797 189.367 187.599 189.485 187.433C189.604 187.268 189.771 187.144 189.964 187.079L194.138 184.658C194.636 184.412 195.183 184.283 195.739 184.283C196.294 184.283 196.841 184.412 197.339 184.658L205.533 189.397C205.726 189.462 205.894 189.586 206.012 189.752C206.131 189.917 206.195 190.116 206.195 190.319C206.195 190.523 206.131 190.722 206.012 190.887C205.894 191.052 205.726 191.176 205.533 191.242L201.359 193.663C200.861 193.915 200.311 194.046 199.752 194.046C199.194 194.046 198.644 193.915 198.146 193.663Z" fill="#A0B3D9"/>
<path d="M211.871 201.591L203.689 196.852C203.497 196.787 203.329 196.663 203.21 196.497C203.092 196.332 203.028 196.133 203.028 195.93C203.028 195.726 203.092 195.528 203.21 195.362C203.329 195.197 203.497 195.073 203.689 195.008L207.863 192.587C208.359 192.334 208.907 192.202 209.464 192.202C210.02 192.202 210.569 192.334 211.064 192.587L219.258 197.326C219.451 197.391 219.619 197.515 219.737 197.681C219.856 197.846 219.92 198.045 219.92 198.248C219.92 198.452 219.856 198.65 219.737 198.816C219.619 198.981 219.451 199.105 219.258 199.171L215.097 201.591C214.596 201.84 214.044 201.969 213.484 201.969C212.924 201.969 212.372 201.84 211.871 201.591Z" fill="#A0B3D9"/>
<path d="M225.596 209.508L217.415 204.781C217.223 204.713 217.058 204.587 216.941 204.42C216.824 204.254 216.761 204.056 216.761 203.852C216.761 203.649 216.824 203.451 216.941 203.284C217.058 203.118 217.223 202.992 217.415 202.924L221.589 200.516C222.084 200.263 222.633 200.131 223.189 200.131C223.746 200.131 224.294 200.263 224.79 200.516L232.984 205.255C233.177 205.32 233.344 205.444 233.463 205.61C233.581 205.775 233.645 205.974 233.645 206.177C233.645 206.381 233.581 206.579 233.463 206.745C233.344 206.91 233.177 207.034 232.984 207.099L228.81 209.508C228.312 209.76 227.761 209.891 227.203 209.891C226.645 209.891 226.094 209.76 225.596 209.508Z" fill="#A0B3D9"/>
<path d="M239.334 217.437L231.14 212.71C230.949 212.641 230.783 212.515 230.666 212.349C230.549 212.183 230.486 211.985 230.486 211.781C230.486 211.578 230.549 211.38 230.666 211.213C230.783 211.047 230.949 210.921 231.14 210.853L235.314 208.444C235.81 208.191 236.358 208.06 236.914 208.06C237.471 208.06 238.019 208.191 238.515 208.444L246.709 213.184C246.902 213.249 247.069 213.373 247.188 213.539C247.307 213.704 247.371 213.903 247.371 214.106C247.371 214.31 247.307 214.508 247.188 214.674C247.069 214.839 246.902 214.963 246.709 215.028L242.535 217.437C242.039 217.69 241.491 217.822 240.935 217.822C240.378 217.822 239.83 217.69 239.334 217.437Z" fill="#A0B3D9"/>
<path d="M253.059 225.365L244.865 220.639C244.674 220.57 244.508 220.444 244.391 220.278C244.274 220.112 244.212 219.913 244.212 219.71C244.212 219.507 244.274 219.308 244.391 219.142C244.508 218.976 244.674 218.85 244.865 218.781L249.039 216.373C249.535 216.12 250.083 215.988 250.64 215.988C251.196 215.988 251.744 216.12 252.24 216.373L260.434 221.113C260.627 221.178 260.795 221.302 260.913 221.467C261.032 221.633 261.096 221.831 261.096 222.035C261.096 222.239 261.032 222.437 260.913 222.603C260.795 222.768 260.627 222.892 260.434 222.957L256.26 225.365C255.765 225.618 255.216 225.75 254.66 225.75C254.104 225.75 253.555 225.618 253.059 225.365Z" fill="#A0B3D9"/>
<path d="M266.785 233.294L258.591 228.568C258.399 228.499 258.234 228.373 258.117 228.207C258 228.041 257.937 227.842 257.937 227.639C257.937 227.436 258 227.237 258.117 227.071C258.234 226.905 258.399 226.779 258.591 226.71L262.764 224.302C263.26 224.049 263.808 223.917 264.365 223.917C264.921 223.917 265.47 224.049 265.965 224.302L274.159 229.029C274.351 229.097 274.516 229.223 274.633 229.39C274.75 229.556 274.813 229.754 274.813 229.958C274.813 230.161 274.75 230.359 274.633 230.525C274.516 230.692 274.351 230.818 274.159 230.886L269.986 233.294C269.49 233.547 268.942 233.679 268.385 233.679C267.829 233.679 267.28 233.547 266.785 233.294Z" fill="#A0B3D9"/>
<path d="M287.68 245.373L272.713 236.689C272.521 236.62 272.356 236.494 272.239 236.328C272.122 236.162 272.059 235.963 272.059 235.76C272.059 235.557 272.122 235.358 272.239 235.192C272.356 235.026 272.521 234.9 272.713 234.831L276.887 232.423C277.385 232.171 277.935 232.04 278.493 232.04C279.052 232.04 279.602 232.171 280.1 232.423L295.131 241.108C295.323 241.176 295.488 241.302 295.605 241.469C295.722 241.635 295.785 241.833 295.785 242.037C295.785 242.24 295.722 242.438 295.605 242.605C295.488 242.771 295.323 242.897 295.131 242.965L290.958 245.373C290.451 245.636 289.889 245.773 289.319 245.773C288.748 245.773 288.186 245.636 287.68 245.373Z" fill="#A0B3D9"/>
<path d="M187.596 176.332L179.414 171.644C179.223 171.575 179.057 171.449 178.94 171.283C178.823 171.117 178.76 170.918 178.76 170.715C178.76 170.512 178.823 170.313 178.94 170.147C179.057 169.981 179.223 169.855 179.414 169.786L183.588 167.378C184.084 167.125 184.632 166.993 185.189 166.993C185.745 166.993 186.293 167.125 186.789 167.378L194.983 172.105C195.175 172.173 195.34 172.299 195.457 172.465C195.574 172.632 195.637 172.83 195.637 173.033C195.637 173.237 195.574 173.435 195.457 173.601C195.34 173.768 195.175 173.894 194.983 173.962L190.771 176.332C190.278 176.578 189.734 176.706 189.183 176.706C188.632 176.706 188.089 176.578 187.596 176.332Z" fill="#A0B3D9"/>
<path d="M201.321 184.261L193.14 179.534C192.948 179.466 192.783 179.34 192.666 179.173C192.549 179.007 192.486 178.809 192.486 178.605C192.486 178.402 192.549 178.204 192.666 178.037C192.783 177.871 192.948 177.745 193.14 177.677L197.313 175.269C197.809 175.016 198.357 174.884 198.914 174.884C199.47 174.884 200.019 175.016 200.514 175.269L208.708 179.995C208.9 180.064 209.065 180.19 209.182 180.356C209.299 180.522 209.362 180.721 209.362 180.924C209.362 181.127 209.299 181.326 209.182 181.492C209.065 181.658 208.9 181.784 208.708 181.853L204.535 184.261C204.036 184.513 203.486 184.644 202.928 184.644C202.369 184.644 201.819 184.513 201.321 184.261Z" fill="#A0B3D9"/>
<path d="M215.097 192.138L206.903 187.412C206.712 187.343 206.546 187.217 206.429 187.051C206.312 186.885 206.249 186.686 206.249 186.483C206.249 186.28 206.312 186.081 206.429 185.915C206.546 185.749 206.712 185.623 206.903 185.554L211.077 183.146C211.573 182.893 212.121 182.761 212.678 182.761C213.234 182.761 213.782 182.893 214.278 183.146L222.472 187.873C222.663 187.941 222.829 188.067 222.946 188.234C223.063 188.4 223.126 188.598 223.126 188.802C223.126 189.005 223.063 189.203 222.946 189.369C222.829 189.536 222.663 189.662 222.472 189.73L218.26 192.138C217.769 192.385 217.228 192.514 216.679 192.514C216.129 192.514 215.588 192.385 215.097 192.138Z" fill="#A0B3D9"/>
<path d="M228.784 200.118L220.59 195.392C220.399 195.323 220.233 195.197 220.116 195.031C219.999 194.865 219.936 194.667 219.936 194.463C219.936 194.26 219.999 194.061 220.116 193.895C220.233 193.729 220.399 193.603 220.59 193.535L224.764 191.126C225.259 190.873 225.808 190.741 226.364 190.741C226.921 190.741 227.469 190.873 227.965 191.126L236.159 195.853C236.35 195.921 236.516 196.047 236.633 196.214C236.75 196.38 236.813 196.578 236.813 196.782C236.813 196.985 236.75 197.183 236.633 197.35C236.516 197.516 236.35 197.642 236.159 197.71L231.985 200.118C231.489 200.371 230.941 200.503 230.385 200.503C229.828 200.503 229.28 200.371 228.784 200.118Z" fill="#A0B3D9"/>
<path d="M242.509 208.047L234.315 203.321C234.124 203.252 233.958 203.126 233.841 202.96C233.724 202.794 233.661 202.595 233.661 202.392C233.661 202.189 233.724 201.99 233.841 201.824C233.958 201.658 234.124 201.532 234.315 201.463L238.489 199.055C238.985 198.802 239.533 198.67 240.09 198.67C240.646 198.67 241.194 198.802 241.69 199.055L249.884 203.782C250.076 203.85 250.241 203.976 250.358 204.143C250.475 204.309 250.538 204.507 250.538 204.711C250.538 204.914 250.475 205.112 250.358 205.279C250.241 205.445 250.076 205.571 249.884 205.639L245.71 208.047C245.215 208.3 244.666 208.432 244.11 208.432C243.554 208.432 243.005 208.3 242.509 208.047Z" fill="#A0B3D9"/>
<path d="M256.235 215.976L248.041 211.237C247.848 211.172 247.68 211.048 247.562 210.882C247.443 210.717 247.379 210.518 247.379 210.315C247.379 210.111 247.443 209.912 247.562 209.747C247.68 209.582 247.848 209.458 248.041 209.392L252.214 206.984C252.713 206.732 253.263 206.601 253.821 206.601C254.38 206.601 254.93 206.732 255.428 206.984L263.61 211.711C263.801 211.779 263.966 211.905 264.083 212.072C264.2 212.238 264.263 212.436 264.263 212.639C264.263 212.843 264.2 213.041 264.083 213.207C263.966 213.374 263.801 213.5 263.61 213.568L259.436 215.976C258.94 216.229 258.392 216.361 257.835 216.361C257.279 216.361 256.73 216.229 256.235 215.976Z" fill="#A0B3D9"/>
<path d="M269.96 223.905L261.766 219.166C261.573 219.101 261.405 218.977 261.287 218.811C261.168 218.646 261.104 218.447 261.104 218.244C261.104 218.04 261.168 217.841 261.287 217.676C261.405 217.511 261.573 217.386 261.766 217.321L265.94 214.913C266.438 214.661 266.988 214.53 267.547 214.53C268.105 214.53 268.655 214.661 269.153 214.913L277.335 219.64C277.526 219.708 277.692 219.834 277.809 220C277.926 220.167 277.989 220.365 277.989 220.568C277.989 220.772 277.926 220.97 277.809 221.136C277.692 221.303 277.526 221.429 277.335 221.497L273.161 223.905C272.665 224.158 272.117 224.29 271.56 224.29C271.004 224.29 270.456 224.158 269.96 223.905Z" fill="#A0B3D9"/>
<path d="M297.411 239.763L275.645 227.146C275.452 227.081 275.284 226.957 275.166 226.791C275.047 226.626 274.983 226.427 274.983 226.224C274.983 226.02 275.047 225.822 275.166 225.656C275.284 225.491 275.452 225.367 275.645 225.301L279.755 222.88C280.253 222.628 280.803 222.497 281.361 222.497C281.92 222.497 282.47 222.628 282.968 222.88L304.734 235.485C304.927 235.55 305.094 235.674 305.213 235.839C305.332 236.005 305.396 236.203 305.396 236.407C305.396 236.611 305.332 236.809 305.213 236.975C305.094 237.14 304.927 237.264 304.734 237.329L300.56 239.75C300.072 239.997 299.534 240.126 298.987 240.129C298.44 240.131 297.9 240.006 297.411 239.763Z" fill="#A0B3D9"/>
<path d="M168.16 187.565L159.966 182.839C159.774 182.77 159.609 182.644 159.492 182.478C159.375 182.312 159.312 182.114 159.312 181.91C159.312 181.707 159.375 181.508 159.492 181.342C159.609 181.176 159.774 181.05 159.966 180.982L164.14 178.573C164.635 178.32 165.184 178.188 165.74 178.188C166.297 178.188 166.845 178.32 167.341 178.573L175.535 183.3C175.726 183.368 175.892 183.494 176.009 183.661C176.126 183.827 176.189 184.025 176.189 184.229C176.189 184.432 176.126 184.63 176.009 184.797C175.892 184.963 175.726 185.089 175.535 185.157L171.361 187.565C170.865 187.818 170.317 187.95 169.76 187.95C169.204 187.95 168.656 187.818 168.16 187.565Z" fill="#A0B3D9"/>
<path d="M181.885 195.494L173.691 190.768C173.5 190.699 173.334 190.573 173.217 190.407C173.1 190.241 173.037 190.042 173.037 189.839C173.037 189.636 173.1 189.437 173.217 189.271C173.334 189.105 173.5 188.979 173.691 188.91L177.865 186.502C178.363 186.25 178.914 186.119 179.472 186.119C180.03 186.119 180.581 186.25 181.079 186.502L189.26 191.229C189.451 191.297 189.617 191.423 189.734 191.59C189.851 191.756 189.914 191.954 189.914 192.158C189.914 192.361 189.851 192.559 189.734 192.725C189.617 192.892 189.451 193.018 189.26 193.086L185.086 195.494C184.591 195.747 184.042 195.879 183.486 195.879C182.929 195.879 182.381 195.747 181.885 195.494Z" fill="#A0B3D9"/>
<path d="M236.786 227.21L187.416 198.684C187.224 198.619 187.056 198.495 186.937 198.329C186.819 198.164 186.755 197.965 186.755 197.762C186.755 197.558 186.819 197.359 186.937 197.194C187.056 197.028 187.224 196.904 187.416 196.839L191.59 194.431C192.088 194.179 192.639 194.048 193.197 194.048C193.755 194.048 194.306 194.179 194.804 194.431L244.161 222.944C245.057 223.457 245.057 224.225 244.161 224.789L240 227.21C239.502 227.462 238.951 227.593 238.393 227.593C237.835 227.593 237.284 227.462 236.786 227.21Z" fill="#A0B3D9"/>
<path d="M250.512 235.139L242.317 230.399C242.125 230.334 241.957 230.21 241.838 230.045C241.72 229.879 241.656 229.681 241.656 229.477C241.656 229.274 241.72 229.075 241.838 228.91C241.957 228.744 242.125 228.62 242.317 228.555L246.491 226.134C246.991 225.888 247.541 225.76 248.098 225.76C248.655 225.76 249.205 225.888 249.705 226.134L257.886 230.873C258.783 231.386 258.783 232.154 257.886 232.718L253.725 235.139C253.225 235.385 252.676 235.513 252.118 235.513C251.561 235.513 251.011 235.385 250.512 235.139Z" fill="#A0B3D9"/>
<path d="M264.237 243.055L256.043 238.328C255.85 238.263 255.682 238.139 255.564 237.974C255.445 237.808 255.381 237.61 255.381 237.406C255.381 237.203 255.445 237.004 255.564 236.839C255.682 236.673 255.85 236.549 256.043 236.484L260.217 234.063C260.715 233.811 261.265 233.679 261.823 233.679C262.382 233.679 262.932 233.811 263.43 234.063L271.612 238.802C272.508 239.315 272.508 240.083 271.612 240.647L267.451 243.055C266.952 243.307 266.402 243.439 265.844 243.439C265.285 243.439 264.735 243.307 264.237 243.055Z" fill="#A0B3D9"/>
<path d="M277.962 250.984L269.768 246.257C269.577 246.189 269.411 246.063 269.294 245.897C269.177 245.73 269.114 245.532 269.114 245.329C269.114 245.125 269.177 244.927 269.294 244.761C269.411 244.594 269.577 244.468 269.768 244.4L273.942 241.992C274.44 241.74 274.99 241.608 275.549 241.608C276.107 241.608 276.657 241.74 277.155 241.992L285.337 246.731C286.233 247.244 286.233 248.012 285.337 248.576L281.176 250.984C280.678 251.236 280.127 251.367 279.569 251.367C279.011 251.367 278.46 251.236 277.962 250.984Z" fill="#A0B3D9"/>
<path d="M311.597 247.974V246.526C311.598 246.356 311.639 246.189 311.717 246.037C311.795 245.886 311.907 245.755 312.045 245.655L320.252 240.916C320.508 240.762 320.713 240.916 320.713 241.262V242.709C320.711 242.88 320.668 243.049 320.588 243.201C320.508 243.352 320.392 243.482 320.252 243.58L312.045 248.32C311.802 248.499 311.597 248.307 311.597 247.974Z" fill="#304F8C"/>
<path d="M299.459 254.98V253.533C299.46 253.361 299.502 253.192 299.583 253.041C299.663 252.889 299.779 252.759 299.92 252.662L308.127 247.922C308.37 247.769 308.575 247.923 308.575 248.268V249.78C308.573 249.95 308.531 250.117 308.453 250.268C308.375 250.419 308.264 250.55 308.127 250.651L299.92 255.39C299.664 255.467 299.459 255.313 299.459 254.98Z" fill="#304F8C"/>
<g style="mix-blend-mode:multiply">
<path d="M341.749 286.67L304.452 308.203L329.829 322.856L328.548 323.42L327.844 330.286L341.749 329.735L379.032 308.203L341.749 286.67Z" fill="#F0E6FE"/>
</g>
<path d="M327.908 295.509L290.625 273.964L327.908 252.431L365.192 273.964L327.908 295.509Z" fill="#94F2E9"/>
<path d="M314.017 287.477L304.516 281.995L341.8 260.463L351.3 265.945L314.017 287.477Z" fill="#6BC8C6"/>
<path d="M304.516 265.945L314.017 260.463L351.3 281.995L341.8 287.477L304.516 265.945Z" fill="#6BC8C6"/>
<path d="M327.857 330.286L290.573 308.753V273.964L327.857 295.509V330.286Z" fill="#80DED5"/>
<path d="M313.965 322.254L304.465 316.772V281.995L313.965 287.477V322.254Z" fill="#61BEBC"/>
<path d="M365.128 308.753L327.844 330.286V295.509L365.128 273.964V308.753Z" fill="#62C0B7"/>
<path d="M351.236 316.772L341.749 322.254V287.477L351.236 281.995V316.772Z" fill="#57B4B2"/>
<path d="M257.144 178.279L216.634 154.876C212.255 152.314 208.708 155.03 208.708 160.871C208.708 166.712 212.255 173.488 216.634 176.012L257.144 199.414C261.523 201.976 265.069 199.26 265.069 193.419C265.031 187.578 261.523 180.802 257.144 178.279Z" fill="#76D4CB"/>
<path d="M208.158 156.337L211.295 154.556L214.905 156.17C214.905 156.17 213.356 159.232 213.074 159.091C212.793 158.95 208.158 156.337 208.158 156.337Z" fill="#76D4CB"/>
<path d="M259.269 201.566L262.278 199.849L262.368 196.929L259.423 197.966L259.269 201.566Z" fill="#76D4CB"/>
<path d="M253.423 180.368L212.913 156.966C208.547 154.404 205 157.12 205 162.961C205 168.789 208.547 175.578 212.913 178.101L253.423 201.504C257.801 204.066 261.348 201.35 261.348 195.509C261.348 189.668 257.801 182.892 253.423 180.368Z" fill="#94F2E9"/>
<path d="M221.564 176.272C222.574 176.853 223.292 176.652 223.292 175.618C223.292 174.484 222.501 173.746 221.797 173.096C221.073 172.426 220.96 172.193 220.96 171.948C220.96 171.733 221.126 171.637 221.458 171.828C221.883 172.072 222.103 172.436 222.262 172.911L223.159 172.821C222.82 171.837 222.222 171.072 221.458 170.632C220.654 170.17 219.897 170.332 219.897 171.367C219.897 172.394 220.575 173.167 221.265 173.786C221.963 174.409 222.229 174.693 222.229 175.022C222.229 175.229 222.103 175.386 221.598 175.096C221.073 174.794 220.787 174.331 220.621 173.791L219.704 173.877C219.963 174.815 220.588 175.711 221.564 176.272ZM223.79 172.081V177.445L224.853 178.056V172.692L223.79 172.081ZM227.215 179.521C228.225 180.102 228.942 179.901 228.942 178.867C228.942 177.733 228.152 176.995 227.448 176.345C226.724 175.675 226.611 175.442 226.611 175.197C226.611 174.982 226.777 174.886 227.109 175.077C227.534 175.321 227.753 175.685 227.913 176.16L228.81 176.07C228.471 175.086 227.873 174.321 227.109 173.881C226.305 173.419 225.548 173.582 225.548 174.616C225.548 175.643 226.225 176.416 226.916 177.035C227.614 177.658 227.879 177.942 227.879 178.271C227.879 178.478 227.753 178.635 227.248 178.345C226.724 178.043 226.438 177.58 226.272 177.04L225.355 177.126C225.614 178.064 226.239 178.96 227.215 179.521ZM232.427 177.047L228.973 175.06V176.241L230.169 176.928V181.112L231.231 181.723V177.539L232.427 178.227V177.047ZM234.845 183.909C236.181 184.676 237.264 184.088 237.264 182.51C237.264 180.931 236.181 179.098 234.845 178.33C233.51 177.562 232.427 178.15 232.427 179.729C232.427 181.307 233.51 183.141 234.845 183.909ZM234.845 182.713C234.088 182.278 233.49 181.298 233.49 180.34C233.49 179.382 234.088 179.09 234.845 179.525C235.603 179.961 236.201 180.94 236.201 181.898C236.201 182.856 235.603 183.149 234.845 182.713ZM241.622 187.698L239.988 184.007L241.556 182.295L240.347 181.6L238.925 183.112V180.783L237.862 180.172V185.536L238.925 186.147V183.664L240.413 187.003L241.622 187.698Z" fill="#304F8C"/>
<path d="M282.635 136.393L288.935 123.045C289.129 122.459 289.205 121.841 289.159 121.225C289.113 120.61 288.945 120.009 288.666 119.459C288.134 118.164 287.218 117.064 286.041 116.308L251.382 96.287C250.882 95.9634 250.282 95.8315 249.692 95.9155L247.58 89.1138C247.339 88.3229 246.826 87.6424 246.133 87.1925L242.983 85.3735C242.817 85.2488 242.618 85.1761 242.41 85.1647C242.203 85.1533 241.997 85.2037 241.818 85.3095L239.808 86.5136L242.228 89.306L242.676 88.7552C242.774 88.8513 242.881 88.9371 242.996 89.0114L245.121 90.2923L254.698 121.124C254.277 121.522 253.951 122.009 253.745 122.55C253.539 123.092 253.458 123.672 253.508 124.25C253.577 126.057 254.096 127.818 255.018 129.373C254.495 129.754 254.08 130.266 253.815 130.857C253.55 131.447 253.444 132.097 253.508 132.742C253.607 134.564 254.135 136.337 255.047 137.917C255.959 139.497 257.23 140.84 258.757 141.837C259.245 142.128 259.777 142.34 260.332 142.464L260.601 143.322L262.265 142.298C262.463 142.212 262.648 142.1 262.816 141.965C263.232 141.559 263.554 141.066 263.757 140.521C263.961 139.976 264.042 139.393 263.994 138.814C263.982 137.905 263.836 137.002 263.558 136.136L274.941 142.72C274.628 143.398 274.474 144.139 274.492 144.885C274.593 146.707 275.121 148.479 276.033 150.059C276.945 151.639 278.215 152.982 279.742 153.98C280.269 154.292 280.844 154.513 281.445 154.633L281.56 155.478L283.416 154.364C283.966 153.991 284.404 153.476 284.684 152.874C284.963 152.272 285.074 151.604 285.004 150.944C284.903 149.121 284.374 147.348 283.459 145.767C282.545 144.187 281.272 142.845 279.742 141.849L279.614 141.785L259 129.886L258.783 129.783C258.172 129.384 257.663 128.847 257.299 128.215C256.934 127.583 256.723 126.874 256.683 126.145C256.683 124.864 257.63 124.262 258.783 124.864L279.767 136.982L280.177 138.263L282.059 137.161C282.318 136.963 282.517 136.697 282.635 136.393ZM279.729 145.359C280.34 145.757 280.849 146.294 281.214 146.926C281.579 147.559 281.79 148.268 281.829 148.997C281.829 150.278 280.894 150.88 279.729 150.278C279.119 149.878 278.611 149.341 278.246 148.709C277.882 148.077 277.67 147.368 277.629 146.64C277.629 145.282 278.577 144.744 279.729 145.41V145.359ZM258.731 133.229C259.342 133.628 259.851 134.165 260.215 134.797C260.58 135.429 260.791 136.138 260.831 136.867C260.831 138.148 259.897 138.75 258.731 138.148C258.121 137.749 257.612 137.211 257.247 136.579C256.883 135.947 256.672 135.238 256.632 134.51C256.632 133.216 257.579 132.614 258.731 133.28V133.229ZM257.682 120.496L251.382 99.912L286.041 119.933L279.729 133.267L257.682 120.496Z" fill="#94F2E9"/>
<path d="M256.696 126.03L277.693 138.16C278.974 138.878 280.087 138.673 280.587 137.622L286.886 124.249C287.084 123.664 287.162 123.045 287.116 122.429C287.069 121.813 286.9 121.212 286.617 120.663C286.086 119.368 285.17 118.268 283.993 117.512L249.346 97.5294C248.841 97.2057 248.239 97.0697 247.644 97.1451L245.531 90.3434C245.291 89.5519 244.778 88.8711 244.084 88.422L240.947 86.6031C240.077 86.1035 239.373 86.5134 239.373 87.5126C239.4 88.0596 239.558 88.5922 239.831 89.0666C240.105 89.5409 240.488 89.9434 240.947 90.2409L243.06 91.5218L252.637 122.354C252.222 122.753 251.9 123.239 251.694 123.777C251.489 124.315 251.404 124.892 251.446 125.466C251.51 127.274 252.029 129.037 252.957 130.59C252.431 130.968 252.014 131.479 251.748 132.071C251.483 132.663 251.379 133.314 251.446 133.959C251.546 135.781 252.073 137.553 252.985 139.133C253.897 140.713 255.168 142.056 256.696 143.053C259.589 144.731 261.945 143.374 261.945 140.03C261.93 139.116 261.779 138.21 261.497 137.34L272.879 143.924C272.572 144.604 272.424 145.344 272.444 146.089C272.544 147.911 273.071 149.684 273.983 151.264C274.895 152.844 276.166 154.187 277.693 155.184C280.587 156.862 282.943 155.504 282.943 152.161C282.842 150.337 282.314 148.563 281.403 146.981C280.491 145.399 279.22 144.054 277.693 143.053H277.552L256.939 131.154L256.734 131.064C256.122 130.663 255.613 130.124 255.249 129.489C254.884 128.855 254.673 128.144 254.634 127.413C254.596 125.902 255.531 125.351 256.696 126.03ZM283.993 121.175L277.693 134.497L255.646 121.688L249.346 101.193L283.993 121.175ZM258.795 138.16C258.795 139.441 257.848 140.043 256.696 139.364C256.083 138.968 255.573 138.431 255.208 137.798C254.843 137.166 254.633 136.456 254.596 135.726C254.596 134.446 255.531 133.844 256.696 134.522C257.306 134.921 257.815 135.459 258.18 136.091C258.544 136.723 258.755 137.432 258.795 138.16ZM279.793 150.291C279.793 151.571 278.846 152.173 277.693 151.495C277.08 151.098 276.57 150.561 276.205 149.929C275.84 149.296 275.631 148.586 275.593 147.857C275.593 146.576 276.528 145.974 277.693 146.576C278.312 146.985 278.825 147.535 279.19 148.18C279.555 148.826 279.762 149.549 279.793 150.291Z" fill="white"/>
<path d="M391.785 169.901L380.338 154.851C379.058 153.096 377.291 152.109 375.96 152.289L364.513 154.133C364.279 154.169 364.054 154.247 363.847 154.364L360.672 156.183V158.834L362.631 157.822V216.924C362.706 218.336 363.114 219.711 363.822 220.935C364.53 222.16 365.517 223.199 366.703 223.969L389.506 237.137V239.148L392.45 237.483C392.846 237.191 393.159 236.801 393.361 236.353C393.563 235.904 393.646 235.411 393.603 234.921V174.948C393.533 173.118 392.898 171.355 391.785 169.901Z" fill="#8295BB"/>
<path d="M386.663 238.905L363.771 225.686C362.587 224.914 361.602 223.874 360.897 222.65C360.192 221.426 359.786 220.052 359.712 218.641V158.745C359.712 157.144 360.416 156.055 361.581 155.863L373.028 154.031C374.308 153.826 376.075 154.812 377.406 156.593L388.788 171.644C389.924 173.09 390.582 174.854 390.671 176.69V236.586C390.671 239.148 388.853 240.199 386.663 238.905Z" fill="#A0B3D9"/>
<path d="M377.099 168.377C377.12 168.547 377.12 168.719 377.099 168.89C376.881 169.735 376.113 170.03 375.204 169.504C374.636 169.131 374.164 168.629 373.826 168.04C373.488 167.45 373.293 166.789 373.258 166.11C373.258 165.06 373.885 164.534 374.73 164.829C374.894 164.883 375.052 164.952 375.204 165.034C375.756 165.408 376.214 165.904 376.543 166.484C376.871 167.064 377.062 167.712 377.099 168.377Z" fill="#304F8C"/>
<path d="M377.099 168.377C377.12 168.547 377.12 168.719 377.099 168.89C376.935 168.837 376.776 168.769 376.625 168.685C376.055 168.316 375.58 167.817 375.24 167.229C374.899 166.641 374.703 165.981 374.666 165.303C374.666 165.126 374.688 164.95 374.73 164.778C374.894 164.832 375.052 164.901 375.204 164.983C375.763 165.362 376.225 165.866 376.554 166.455C376.883 167.045 377.07 167.703 377.099 168.377Z" fill="white"/>
<path d="M95.6799 79.1097C95.5282 76.1861 94.6783 73.3414 93.2014 70.8141C91.7244 68.2867 89.6635 66.1504 87.1912 64.5841C84.8482 63.2391 82.7997 63.047 81.3017 63.7899L81.1736 63.854L81.0328 63.9308L78.933 65.1093L78.6642 67.4021H78.8562C78.7296 68.0434 78.6653 68.6954 78.6642 69.3491C78.8261 72.2696 79.6847 75.1088 81.1682 77.6293C82.6517 80.1498 84.717 82.2781 87.1912 83.8363C88.2813 84.5107 89.5128 84.9229 90.789 85.0404L90.6226 85.9627L93.1832 84.5537H93.2601C94.7453 83.593 95.6799 81.7356 95.6799 79.1097ZM87.1528 77.3036C86.3832 76.8015 85.7477 76.119 85.3014 75.3154C84.8552 74.5118 84.6117 73.6114 84.5922 72.6923C84.5922 70.9247 85.6676 70.1305 87.1528 71.0784C87.9395 71.5749 88.5917 72.2578 89.0518 73.0665C89.5118 73.8753 89.7655 74.7851 89.7903 75.7153C89.7903 77.3549 88.7149 78.2131 87.1528 77.3036Z" fill="#8295BB"/>
<path d="M69.7018 51.8774C70.8577 52.6017 72.1804 53.0163 73.5428 53.0814L73.6196 53.7731L75.7066 52.5947L75.8474 52.5178H75.9371C77.3582 51.6084 78.2033 49.7767 78.2033 47.2148C78.0764 44.2869 77.2383 41.4339 75.7615 38.903C74.2846 36.372 72.2135 34.2392 69.7274 32.6892C67.4356 31.4082 65.4383 31.1521 63.9531 31.8309L63.7994 31.9078L63.4921 32.0743L61.4436 33.2143L61.5844 34.5849C61.2938 35.4912 61.1511 36.4384 61.1619 37.3901C61.3252 40.3118 62.1858 43.1518 63.6716 45.6723C65.1574 48.1929 67.2252 50.3206 69.7018 51.8774ZM69.7018 39.0682C70.4877 39.5655 71.1393 40.2486 71.5992 41.0572C72.0592 41.8658 72.3133 42.7751 72.3393 43.7051C72.3393 45.3575 71.2638 46.2669 69.7018 45.2934C68.9314 44.7921 68.2952 44.1098 67.8489 43.306C67.4026 42.5022 67.1596 41.6014 67.1411 40.6821C67.0515 38.9657 68.127 38.2227 69.6506 39.1066L69.7018 39.0682Z" fill="#8295BB"/>
<path d="M87.3961 48.7391L85.2451 49.9432L85.386 50.1353L65.2334 64.2511L67.666 67.3125L66.3217 69.5413L68.4727 68.3244L90.6226 52.7484L87.3961 48.7391Z" fill="#8295BB"/>
<path d="M59.0109 38.5302C59.0109 33.2143 62.6471 30.9984 67.538 33.8292C70.025 35.3794 72.0975 37.5119 73.5764 40.0426C75.0553 42.5734 75.8963 45.4262 76.0267 48.3548C76.0267 53.6835 72.3905 55.8867 67.538 53.0943C65.055 51.527 62.9844 49.3862 61.5006 46.8517C60.0167 44.3173 59.1629 41.4634 59.0109 38.5302ZM85.2451 49.956L88.4716 53.9781L66.3217 69.5413L63.0824 65.468L85.2451 49.956ZM70.1371 44.9604C70.1122 44.0302 69.8585 43.1204 69.3985 42.3116C68.9385 41.5029 68.2863 40.82 67.4996 40.3235C65.976 39.4396 64.9389 40.1826 64.9389 41.9374C64.9585 42.8565 65.2019 43.7569 65.6482 44.5605C66.0944 45.3641 66.7299 46.0466 67.4996 46.5487C69.0616 47.4582 70.1371 46.6 70.1371 44.9604ZM76.5388 70.502C76.5388 65.1733 80.1622 62.9702 85.0659 65.801C87.5396 67.3657 89.6016 69.5017 91.0788 72.0294C92.5559 74.557 93.405 77.4025 93.5545 80.3267C93.5545 85.6553 89.9184 87.8585 85.0659 85.0533C82.5693 83.4893 80.4876 81.3446 78.9984 78.802C77.5092 76.2594 76.6566 73.3942 76.5132 70.4507L76.5388 70.502ZM87.665 76.9066C87.6397 75.9732 87.3846 75.0605 86.9222 74.2494C86.4599 73.4383 85.8047 72.7539 85.0147 72.2568C83.5039 71.3858 82.454 72.1159 82.454 73.8708C82.4758 74.7912 82.7202 75.6925 83.1661 76.4978C83.6121 77.3031 84.2463 77.9883 85.0147 78.4949C86.5639 79.4172 87.6394 78.5718 87.6394 76.9322L87.665 76.9066Z" fill="#A0B3D9"/>
<path d="M116.934 331.067L89.5343 346.887L0.601761 295.522L28.0011 279.702" stroke="#304F8C" stroke-width="0.95" stroke-linecap="round" stroke-linejoin="round"/>
<path d="M31.5476 281.867C30.3884 282.46 29.1048 282.77 27.8026 282.77C26.5004 282.77 25.2168 282.46 24.0576 281.867C21.9835 280.676 21.9835 278.729 24.0576 277.537C25.2168 276.944 26.5004 276.634 27.8026 276.634C29.1048 276.634 30.3884 276.944 31.5476 277.537C33.6218 278.729 33.6218 280.676 31.5476 281.867Z" fill="#304F8C"/>
<path d="M153.641 249.152C152.48 249.746 151.194 250.055 149.89 250.055C148.585 250.055 147.3 249.746 146.138 249.152C144.077 247.961 144.077 246.014 146.138 244.823C147.301 244.235 148.586 243.929 149.89 243.929C151.193 243.929 152.478 244.235 153.641 244.823C155.651 246.014 155.651 247.961 153.641 249.152Z" fill="#304F8C"/>
<path d="M86.295 175.486C85.1335 176.08 83.8479 176.39 82.5436 176.39C81.2393 176.39 79.9537 176.08 78.7922 175.486C76.7309 174.295 76.7181 172.348 78.7922 171.157C79.9555 170.569 81.2404 170.263 82.5436 170.263C83.8468 170.263 85.1317 170.569 86.295 171.157C88.3435 172.386 88.3435 174.334 86.295 175.486Z" fill="#304F8C"/>
<path d="M145.78 171.708C144.62 172.301 143.337 172.611 142.035 172.611C140.732 172.611 139.449 172.301 138.29 171.708C136.216 170.516 136.216 168.569 138.29 167.378C139.451 166.791 140.734 166.484 142.035 166.484C143.336 166.484 144.619 166.791 145.78 167.378C147.854 168.569 147.854 170.516 145.78 171.708Z" fill="#304F8C"/>
<path d="M120.672 333.27C119.511 333.858 118.228 334.164 116.927 334.164C115.626 334.164 114.343 333.858 113.182 333.27C111.108 332.066 111.108 330.132 113.182 328.928C114.343 328.34 115.626 328.034 116.927 328.034C118.228 328.034 119.511 328.34 120.672 328.928C122.746 330.132 122.746 332.066 120.672 333.27Z" fill="#304F8C"/>
<path d="M292.75 329.351C291.589 329.944 290.303 330.254 288.999 330.254C287.694 330.254 286.409 329.944 285.247 329.351C283.173 328.159 283.173 326.212 285.247 325.021C286.411 324.434 287.695 324.127 288.999 324.127C290.302 324.127 291.587 324.434 292.75 325.021C294.824 326.212 294.824 328.159 292.75 329.351Z" fill="#304F8C"/>
<path d="M149.608 247.115L33.1992 314.351" stroke="#304F8C" stroke-width="0.95" stroke-linecap="round" stroke-linejoin="round"/>
<path d="M82.2875 173.411L52.5196 190.601" stroke="#304F8C" stroke-width="0.95" stroke-linecap="round" stroke-linejoin="round"/>
<path d="M142.156 169.722L79.6884 205.793" stroke="#304F8C" stroke-width="0.95" stroke-linecap="round" stroke-linejoin="round"/>
<path d="M150.35 247.103L288.999 327.186" stroke="#304F8C" stroke-width="0.95" stroke-linecap="round" stroke-linejoin="round"/>
<path d="M52.5196 190.601L191.168 270.672" stroke="#304F8C" stroke-width="0.95" stroke-linecap="round" stroke-linejoin="round"/>
<g style="mix-blend-mode:multiply">
<g style="mix-blend-mode:multiply">
<path d="M405.33 264.369C405.33 260.181 399.799 257.03 392.399 257.03C384.999 257.03 379.404 260.309 379.404 264.369C379.404 268.43 384.935 271.696 392.399 271.696C399.863 271.696 405.33 268.417 405.33 264.369ZM388.366 264.369C388.366 263.089 390.005 261.987 392.322 261.987C394.64 261.987 396.355 263.024 396.355 264.369C396.355 265.714 394.716 266.739 392.322 266.739C389.928 266.739 388.366 265.702 388.366 264.369Z" fill="#F0E6FE"/>
</g>
<g style="mix-blend-mode:multiply">
<path d="M419.069 273.682C411.604 273.682 406.073 276.961 406.073 281.021C406.073 285.082 411.604 288.361 419.069 288.361C426.533 288.361 432 285.082 432 281.021C432 276.961 426.469 273.682 419.069 273.682ZM418.992 283.391C416.687 283.391 415.035 282.366 415.035 281.021C415.035 279.676 416.687 278.652 418.992 278.652C421.296 278.652 423.038 279.689 423.038 281.021C423.038 282.354 421.386 283.391 418.992 283.391Z" fill="#F0E6FE"/>
</g>
<g style="mix-blend-mode:multiply">
<path d="M419.376 261.513L385.6 283.096L386.74 285.056L390.53 284.774L424.305 263.153L419.376 261.513Z" fill="#F0E6FE"/>
</g>
</g>
<path d="M388.609 271.978C396.01 271.978 401.541 268.699 401.541 264.651V261.539H400.401C398.417 258.977 393.999 257.312 388.609 257.312C383.219 257.312 378.802 259.041 376.792 261.539H375.614V264.651C375.614 268.699 381.145 271.978 388.609 271.978ZM388.532 262.269C390.927 262.269 392.578 263.306 392.578 264.651C392.578 265.996 390.927 267.021 388.532 267.021C386.138 267.021 384.576 265.983 384.576 264.651C384.576 263.319 386.228 262.269 388.532 262.269Z" fill="#8295BB"/>
<path d="M420.515 263.434H420.503H420.515V260.335H413.281V263.268L386.663 280.279H381.811V283.378H381.823L386.74 285.056L420.515 263.434Z" fill="#8295BB"/>
<path d="M428.21 278.203H427.019C425.022 275.706 420.618 273.964 415.279 273.964C409.94 273.964 405.471 275.706 403.474 278.203H402.283V281.303C402.283 285.364 407.814 288.643 415.279 288.643C422.743 288.643 428.21 285.364 428.21 281.303V278.203ZM415.215 283.673C412.897 283.673 411.246 282.648 411.246 281.303C411.246 279.958 412.897 278.934 415.215 278.934C417.532 278.934 419.248 279.971 419.248 281.303C419.248 282.635 417.596 283.673 415.215 283.673Z" fill="#8295BB"/>
<path d="M375.614 261.539C375.614 257.491 381.145 254.212 388.609 254.212C396.074 254.212 401.541 257.363 401.541 261.539C401.541 265.714 396.01 268.878 388.609 268.878C381.209 268.878 375.614 265.599 375.614 261.539ZM415.586 258.746L420.515 260.386L386.74 282.008L381.811 280.317L415.586 258.746ZM392.54 261.59C392.54 260.309 390.888 259.22 388.494 259.22C386.1 259.22 384.538 260.258 384.538 261.59C384.538 262.922 386.189 263.972 388.494 263.972C390.799 263.972 392.578 262.794 392.578 261.539L392.54 261.59ZM402.245 278.242C402.245 274.181 407.776 270.902 415.24 270.902C422.705 270.902 428.172 274.181 428.172 278.242C428.172 282.302 422.641 285.569 415.24 285.569C407.84 285.569 402.283 282.251 402.283 278.203L402.245 278.242ZM419.209 278.242C419.209 276.897 417.558 275.859 415.176 275.859C412.795 275.859 411.207 276.897 411.207 278.242C411.207 279.587 412.859 280.612 415.176 280.612C417.494 280.612 419.248 279.446 419.248 278.203L419.209 278.242Z" fill="#A0B3D9"/>
</svg>
