<svg width="59" height="59" viewBox="0 0 59 59" fill="none" xmlns="http://www.w3.org/2000/svg">
<rect width="59" height="59" rx="29.5" fill="#304F8C" fill-opacity="0.1"/>
<path d="M36.63 21.6484C36.5138 21.5544 36.3781 21.4876 36.2327 21.453C36.0873 21.4184 35.9361 21.4168 35.79 21.4484C34.7214 21.6723 33.6183 21.6752 32.5486 21.4567C31.4789 21.2383 30.4653 20.8033 29.57 20.1784C29.4026 20.0622 29.2037 20 29 20C28.7963 20 28.5974 20.0622 28.43 20.1784C27.5348 20.8033 26.5211 21.2383 25.4514 21.4567C24.3817 21.6752 23.2786 21.6723 22.21 21.4484C22.0639 21.4168 21.9127 21.4184 21.7673 21.453C21.6219 21.4876 21.4862 21.5544 21.37 21.6484C21.254 21.7425 21.1605 21.8614 21.0965 21.9964C21.0325 22.1314 20.9995 22.279 21 22.4284V29.8784C20.9991 31.3121 21.3408 32.7253 21.9965 34.0003C22.6523 35.2753 23.6032 36.3752 24.77 37.2084L28.42 39.8084C28.5894 39.9289 28.7921 39.9937 29 39.9937C29.2079 39.9937 29.4106 39.9289 29.58 39.8084L33.23 37.2084C34.3968 36.3752 35.3477 35.2753 36.0035 34.0003C36.6592 32.7253 37.0009 31.3121 37 29.8784V22.4284C37.0005 22.279 36.9675 22.1314 36.9035 21.9964C36.8395 21.8614 36.746 21.7425 36.63 21.6484ZM35 29.8784C35.0008 30.9931 34.7353 32.0919 34.2257 33.0834C33.716 34.0748 32.977 34.9302 32.07 35.5784L29 37.7684L25.93 35.5784C25.023 34.9302 24.284 34.0748 23.7744 33.0834C23.2647 32.0919 22.9992 30.9931 23 29.8784V23.5784C25.0964 23.7578 27.196 23.2714 29 22.1884C30.804 23.2714 32.9036 23.7578 35 23.5784V29.8784ZM30.54 27.5884L27.85 30.2884L26.96 29.3884C26.7717 29.2001 26.5163 29.0943 26.25 29.0943C25.9837 29.0943 25.7283 29.2001 25.54 29.3884C25.3517 29.5767 25.2459 29.8321 25.2459 30.0984C25.2459 30.3647 25.3517 30.6201 25.54 30.8084L27.14 32.4084C27.233 32.5021 27.3436 32.5765 27.4654 32.6272C27.5873 32.678 27.718 32.7042 27.85 32.7042C27.982 32.7042 28.1127 32.678 28.2346 32.6272C28.3564 32.5765 28.467 32.5021 28.56 32.4084L32 28.9984C32.1883 28.8101 32.2941 28.5547 32.2941 28.2884C32.2941 28.0221 32.1883 27.7667 32 27.5784C31.8117 27.3901 31.5563 27.2843 31.29 27.2843C31.0237 27.2843 30.7683 27.3901 30.58 27.5784L30.54 27.5884Z" fill="#304F8C"/>
</svg>
