<svg width="59" height="59" viewBox="0 0 59 59" fill="none" xmlns="http://www.w3.org/2000/svg">
<rect width="59" height="59" rx="29.5" fill="#304F8C" fill-opacity="0.1"/>
<path d="M38.9936 27.2341C38.9305 27.0512 38.8156 26.8905 38.663 26.7716C38.5103 26.6527 38.3264 26.5806 38.1336 26.5641L32.4436 25.7341L29.8936 20.5641C29.8117 20.395 29.6839 20.2525 29.5247 20.1527C29.3655 20.0529 29.1815 20 28.9936 20C28.8058 20 28.6217 20.0529 28.4625 20.1527C28.3034 20.2525 28.1755 20.395 28.0936 20.5641L25.5436 25.7241L19.8536 26.5641C19.6686 26.5904 19.4946 26.6681 19.3514 26.7883C19.2082 26.9085 19.1016 27.0664 19.0436 27.2441C18.9906 27.4178 18.9858 27.6026 19.0299 27.7788C19.0739 27.955 19.1651 28.1158 19.2936 28.2441L23.4236 32.2441L22.4236 37.9241C22.3879 38.1116 22.4066 38.3054 22.4775 38.4826C22.5484 38.6598 22.6685 38.813 22.8236 38.9241C22.9748 39.0322 23.1532 39.096 23.3387 39.1084C23.5242 39.1208 23.7094 39.0812 23.8736 38.9941L28.9936 36.3241L34.0936 39.0041C34.234 39.0833 34.3925 39.1246 34.5536 39.1241C34.7655 39.1249 34.972 39.0583 35.1436 38.9341C35.2988 38.823 35.4189 38.6698 35.4898 38.4926C35.5606 38.3154 35.5793 38.1216 35.5436 37.9341L34.5436 32.2541L38.6736 28.2541C38.818 28.1318 38.9247 27.971 38.9814 27.7905C39.038 27.6099 39.0423 27.417 38.9936 27.2341ZM32.8436 31.2341C32.7264 31.3475 32.6386 31.488 32.5881 31.6431C32.5375 31.7982 32.5257 31.9634 32.5536 32.1241L33.2736 36.3141L29.5136 34.3141C29.3689 34.2371 29.2075 34.1968 29.0436 34.1968C28.8797 34.1968 28.7183 34.2371 28.5736 34.3141L24.8136 36.3141L25.5336 32.1241C25.5616 31.9634 25.5497 31.7982 25.4992 31.6431C25.4486 31.488 25.3609 31.3475 25.2436 31.2341L22.2436 28.2341L26.4536 27.6241C26.6156 27.6016 26.7696 27.5397 26.9021 27.4438C27.0346 27.3479 27.1416 27.2209 27.2136 27.0741L28.9936 23.2641L30.8736 27.0841C30.9457 27.2309 31.0526 27.3579 31.1851 27.4538C31.3176 27.5497 31.4716 27.6116 31.6336 27.6341L35.8436 28.2441L32.8436 31.2341Z" fill="#304F8C"/>
</svg>
