<svg width="59" height="59" viewBox="0 0 59 59" fill="none" xmlns="http://www.w3.org/2000/svg">
<rect width="59" height="59" rx="29.5" fill="#304F8C" fill-opacity="0.1"/>
<path d="M35.2689 20.9778H22.42C21.6898 20.9778 20.9894 21.2679 20.4731 21.7842C19.9567 22.3006 19.6667 23.0009 19.6667 23.7311V32.9089C19.6667 33.6391 19.9567 34.3394 20.4731 34.8558C20.9894 35.3721 21.6898 35.6622 22.42 35.6622H25.1733V37.4978H22.42C22.1766 37.4978 21.9431 37.5945 21.771 37.7666C21.5989 37.9387 21.5022 38.1722 21.5022 38.4156C21.5022 38.659 21.5989 38.8924 21.771 39.0645C21.9431 39.2366 22.1766 39.3333 22.42 39.3333H35.2689C35.5123 39.3333 35.7457 39.2366 35.9178 39.0645C36.09 38.8924 36.1867 38.659 36.1867 38.4156C36.1867 38.1722 36.09 37.9387 35.9178 37.7666C35.7457 37.5945 35.5123 37.4978 35.2689 37.4978H32.5155V35.6622H35.2689C35.9991 35.6622 36.6994 35.3721 37.2158 34.8558C37.7321 34.3394 38.0222 33.6391 38.0222 32.9089V23.7311C38.0222 23.0009 37.7321 22.3006 37.2158 21.7842C36.6994 21.2679 35.9991 20.9778 35.2689 20.9778ZM30.68 37.4978H27.0089V35.6622H30.68V37.4978ZM36.1867 32.9089C36.1867 33.1523 36.09 33.3857 35.9178 33.5579C35.7457 33.73 35.5123 33.8267 35.2689 33.8267H22.42C22.1766 33.8267 21.9431 33.73 21.771 33.5579C21.5989 33.3857 21.5022 33.1523 21.5022 32.9089V31.9911H36.1867V32.9089ZM36.1867 30.1556H21.5022V23.7311C21.5022 23.4877 21.5989 23.2543 21.771 23.0821C21.9431 22.91 22.1766 22.8133 22.42 22.8133H35.2689C35.5123 22.8133 35.7457 22.91 35.9178 23.0821C36.09 23.2543 36.1867 23.4877 36.1867 23.7311V30.1556Z" fill="#304F8C"/>
</svg>
