<svg width="59" height="59" viewBox="0 0 59 59" fill="none" xmlns="http://www.w3.org/2000/svg">
<rect width="59" height="59" rx="29.5" fill="#304F8C" fill-opacity="0.1"/>
<path d="M38.0004 37.9987H35.0017C34.7366 37.9987 34.4823 37.8932 34.2949 37.7056C34.1074 37.5179 34.0021 37.2634 34.0021 36.998V33.996C35.1952 33.985 36.345 33.547 37.2437 32.7613C38.1424 31.9755 38.7306 30.8939 38.902 29.7118C39.0735 28.5297 38.8168 27.3253 38.1785 26.3161C37.5401 25.307 36.5622 24.5598 35.4215 24.2095C34.8108 22.8046 33.7567 21.6389 32.4208 20.891C31.085 20.1432 29.541 19.8544 28.0256 20.0691C26.5101 20.2837 25.1068 20.9898 24.0306 22.0793C22.9544 23.1687 22.2646 24.5814 22.0671 26.1008C21.1141 26.3292 20.2781 26.9001 19.7179 27.705C19.1576 28.5099 18.9122 29.4927 19.0281 30.4669C19.144 31.441 19.6133 32.3386 20.3467 32.9892C21.0802 33.6398 22.0268 33.9981 23.0067 33.996H24.0063V36.998C24.0063 37.2634 23.901 37.5179 23.7136 37.7056C23.5261 37.8932 23.2718 37.9987 23.0067 37.9987H20.008C19.7429 37.9987 19.4887 38.1041 19.3012 38.2918C19.1137 38.4794 19.0084 38.7339 19.0084 38.9993C19.0084 39.2647 19.1137 39.5193 19.3012 39.7069C19.4887 39.8946 19.7429 40 20.008 40H23.0067C23.8021 40 24.5648 39.6837 25.1272 39.1207C25.6895 38.5578 26.0055 37.7942 26.0055 36.998V33.996H28.0046V38.9993C28.0046 39.2647 28.1099 39.5193 28.2974 39.7069C28.4849 39.8946 28.7391 40 29.0042 40C29.2693 40 29.5236 39.8946 29.711 39.7069C29.8985 39.5193 30.0038 39.2647 30.0038 38.9993V33.996H32.003V36.998C32.003 37.7942 32.3189 38.5578 32.8813 39.1207C33.4436 39.6837 34.2064 40 35.0017 40H38.0004C38.2655 40 38.5198 39.8946 38.7072 39.7069C38.8947 39.5193 39 39.2647 39 38.9993C39 38.7339 38.8947 38.4794 38.7072 38.2918C38.5198 38.1041 38.2655 37.9987 38.0004 37.9987ZM23.0067 31.9947C22.4765 31.9947 21.968 31.7838 21.5931 31.4085C21.2182 31.0332 21.0076 30.5241 21.0076 29.9934C21.0076 29.4626 21.2182 28.9535 21.5931 28.5782C21.968 28.2029 22.4765 27.992 23.0067 27.992C23.2718 27.992 23.5261 27.8866 23.7136 27.6989C23.901 27.5113 24.0063 27.2567 24.0063 26.9914C24.0089 25.8078 24.4304 24.6636 25.1961 23.7618C25.9618 22.86 27.0219 22.2592 28.1883 22.066C29.3547 21.8728 30.5517 22.0997 31.5667 22.7065C32.5817 23.3133 33.349 24.2607 33.7322 25.3803C33.7894 25.5522 33.8921 25.7054 34.0294 25.8235C34.1667 25.9416 34.3335 26.0201 34.5119 26.0507C35.2058 26.1706 35.8354 26.531 36.2905 27.0689C36.7455 27.6068 36.997 28.2878 37.0008 28.9927C37.0008 29.7889 36.6849 30.5524 36.1225 31.1154C35.5602 31.6784 34.7974 31.9947 34.0021 31.9947H23.0067Z" fill="#304F8C"/>
</svg>
